<svg aria-hidden="true" style="position: absolute; width: 0; height: 0; overflow: hidden;" version="1.1" xmlns="http://www.w3.org/2000/svg" xmlns:xlink="http://www.w3.org/1999/xlink">
<defs>
<symbol id="icon-Activity" viewBox="0 0 32 32">
<path d="M10.735 3.578c0.387-1.16 1.971-1.213 2.467-0.158l0.063 0.158 6.735 20.204 2.735-8.204c0.165-0.495 0.601-0.843 1.11-0.903l0.155-0.009h5.333c0.736 0 1.333 0.597 1.333 1.333 0 0.684-0.515 1.247-1.178 1.324l-0.155 0.009h-4.373l-3.695 11.088c-0.387 1.16-1.971 1.213-2.467 0.158l-0.063-0.158-6.735-20.207-2.735 8.207c-0.165 0.495-0.601 0.843-1.11 0.903l-0.155 0.009h-5.333c-0.736 0-1.333-0.597-1.333-1.333 0-0.684 0.515-1.247 1.178-1.324l0.155-0.009h4.372l3.696-11.088z"></path>
</symbol>
<symbol id="icon-Anchor" viewBox="0 0 32 32">
<path d="M1.333 16c0-0.684 0.515-1.247 1.178-1.324l0.155-0.009h4c0.736 0 1.333 0.597 1.333 1.333 0 0.684-0.515 1.247-1.178 1.324l-0.155 0.009h-2.593l0.007 0.066c0.642 5.531 5.046 9.915 10.587 10.527l-0-16.095c-2.3-0.592-4-2.68-4-5.165 0-2.946 2.388-5.333 5.333-5.333s5.333 2.388 5.333 5.333c0 2.485-1.699 4.573-3.999 5.165l-0 16.095c5.425-0.6 9.759-4.816 10.54-10.184l0.051-0.409h-2.592c-0.684 0-1.247-0.515-1.324-1.178l-0.009-0.155c0-0.684 0.515-1.247 1.178-1.324l0.155-0.009h4c0.736 0 1.333 0.597 1.333 1.333 0 7.972-6.36 14.458-14.282 14.662l-0.385 0.005c-8.1 0-14.667-6.567-14.667-14.667zM16 4c-1.473 0-2.667 1.194-2.667 2.667s1.194 2.667 2.667 2.667c1.473 0 2.667-1.194 2.667-2.667s-1.194-2.667-2.667-2.667z"></path>
</symbol>
<symbol id="icon-At-Sign" viewBox="0 0 32 32">
<path d="M19.334 1.719c6.512 1.52 11.155 7.244 11.328 13.897l0.005 0.385v1.333c0 2.946-2.388 5.333-5.333 5.333-1.793 0-3.38-0.885-4.347-2.243-1.22 1.375-3.002 2.243-4.986 2.243-3.682 0-6.667-2.985-6.667-6.667s2.985-6.667 6.667-6.667c1.501 0 2.887 0.496 4.001 1.334l-0.001-0c0-0.736 0.597-1.333 1.333-1.333 0.684 0 1.247 0.515 1.324 1.178l0.009 0.155v6.667c0 1.473 1.194 2.667 2.667 2.667 1.406 0 2.558-1.088 2.659-2.468l0.007-0.199v-1.333c-0-5.576-3.842-10.418-9.273-11.685s-11.019 1.373-13.487 6.374c-2.469 5-1.167 11.042 3.141 14.583s10.488 3.647 14.915 0.256c0.585-0.448 1.422-0.337 1.869 0.248s0.337 1.422-0.248 1.869c-5.411 4.144-12.964 4.014-18.23-0.313s-6.856-11.712-3.839-17.824c3.017-6.112 9.847-9.339 16.484-7.79zM16.001 12.001c-2.209 0-4 1.791-4 4s1.791 4 4 4c2.209 0 4-1.791 4-4s-1.791-4-4-4z"></path>
</symbol>
<symbol id="icon-Award" viewBox="0 0 32 32">
<path d="M16 0c5.891 0 10.667 4.776 10.667 10.667 0 3.453-1.641 6.523-4.185 8.472l1.507 11.353c0.14 1.059-0.949 1.824-1.882 1.386l-0.126-0.067-5.981-3.589-5.981 3.589c-0.916 0.55-2.051-0.146-2.019-1.176l0.012-0.142 1.508-11.351c-2.545-1.949-4.186-5.020-4.186-8.473 0-5.891 4.776-10.667 10.667-10.667zM19.981 20.566c-1.23 0.495-2.574 0.768-3.981 0.768s-2.75-0.272-3.98-0.767l-1.001 7.534 4.295-2.577c0.369-0.222 0.82-0.249 1.209-0.083l0.163 0.083 4.294 2.577zM16 2.667c-4.418 0-8 3.582-8 8s3.582 8 8 8c1.563 0 3.022-0.448 4.254-1.224 0.056-0.046 0.117-0.085 0.181-0.118 2.149-1.433 3.564-3.88 3.564-6.658 0-4.418-3.582-8-8-8z"></path>
</symbol>
<symbol id="icon-Bell" viewBox="0 0 32 32">
<path d="M18.978 26.847c0.637 0.369 0.854 1.185 0.484 1.822-0.716 1.234-2.034 1.993-3.46 1.993s-2.744-0.759-3.46-1.993c-0.37-0.637-0.153-1.453 0.484-1.822 0.591-0.343 1.337-0.181 1.737 0.354l0.172 0.261c0.25 0.333 0.644 0.533 1.067 0.533s0.817-0.2 1.067-0.533l0.087-0.131c0.369-0.637 1.185-0.854 1.822-0.484zM16.002 1.333c5.155 0 9.333 4.179 9.333 9.333 0 3.866 0.697 6.772 1.837 8.862 0.382 0.7 0.782 1.247 1.172 1.659 0.176 0.185 0.304 0.299 0.367 0.348l0.030 0.022c1.054 0.703 0.618 2.307-0.585 2.435l-0.154 0.008h-24c-1.266 0-1.795-1.577-0.864-2.35l0.124-0.092c0.044-0.029 0.186-0.148 0.397-0.37 0.39-0.412 0.791-0.959 1.172-1.659 1.083-1.985 1.766-4.707 1.832-8.289l0.005-0.573c0-5.155 4.179-9.333 9.333-9.333zM16.002 4c-3.585 0-6.509 2.83-6.66 6.377l-0.006 0.289c0 4.3-0.803 7.645-2.163 10.138l-0.184 0.327-0.122 0.201h18.271l-0.121-0.201-0.184-0.327c-1.295-2.375-2.085-5.522-2.157-9.531l-0.005-0.608-0.006-0.289c-0.151-3.548-3.076-6.377-6.66-6.377z"></path>
</symbol>
<symbol id="icon-Filter" viewBox="0 0 32 32">
<path d="M2.669 2.667l-0.145 0.007c-1.041 0.107-1.574 1.358-0.873 2.187l10.351 12.24v8.232c0 0.505 0.285 0.967 0.737 1.193l5.333 2.667 0.141 0.061c0.852 0.313 1.788-0.315 1.788-1.254v-10.9l10.351-12.239c0.733-0.867 0.117-2.194-1.018-2.194h-26.667zM26.463 5.333l-8.811 10.419-0.111 0.152c-0.133 0.211-0.204 0.457-0.204 0.709v9.229l-2.667-1.333v-7.896l-0.013-0.187c-0.035-0.247-0.139-0.481-0.302-0.674l-8.813-10.419h20.921z"></path>
</symbol>
<symbol id="icon-Flag" viewBox="0 0 32 32">
<path d="M4 4c0-0.354 0.14-0.693 0.391-0.943 0.293-0.293 0.819-0.644 1.614-0.962 1.204-0.482 2.747-0.762 4.662-0.762 1.667 0 2.865 0.287 4.946 1.083v0l1.284 0.505c2.071 0.814 3.077 1.079 4.437 1.079 1.585 0 2.792-0.219 3.671-0.571 0.455-0.182 0.678-0.331 0.719-0.372v0l0.113-0.102c0.849-0.686 2.163-0.092 2.163 1.044v0 16c0 0.354-0.14 0.693-0.391 0.943-0.293 0.293-0.819 0.644-1.614 0.962-1.204 0.482-2.747 0.762-4.662 0.762-1.667 0-2.865-0.287-4.946-1.083v0l-1.284-0.505c-2.071-0.814-3.077-1.079-4.437-1.079-1.585 0-2.792 0.219-3.671 0.571-0.128 0.051-0.237 0.1-0.33 0.144l0.001 8.618c0 0.736-0.597 1.333-1.333 1.333-0.684 0-1.247-0.515-1.324-1.178l-0.009-0.155zM10.667 4c-1.585 0-2.792 0.219-3.671 0.571-0.114 0.046-0.213 0.089-0.299 0.129v0l-0.030 0.014v13.147l0.305-0.088c0.917-0.251 1.988-0.403 3.224-0.434v0l0.471-0.006c1.667 0 2.865 0.287 4.946 1.083v0l1.284 0.505c2.071 0.814 3.077 1.079 4.437 1.079 1.585 0 2.792-0.219 3.671-0.571 0.114-0.046 0.213-0.089 0.299-0.129v0l0.030-0.016v-13.147l-0.305 0.090c-0.917 0.251-1.988 0.403-3.224 0.434v0l-0.471 0.006c-1.667 0-2.865-0.287-4.946-1.083v0l-1.284-0.505c-2.071-0.814-3.077-1.079-4.437-1.079z"></path>
</symbol>
<symbol id="icon-Globe" viewBox="0 0 32 32">
<path d="M16 1.333c8.1 0 14.667 6.566 14.667 14.667s-6.566 14.667-14.667 14.667v0 0l-0.385-0.005c-7.922-0.204-14.282-6.69-14.282-14.662 0-8.1 6.566-14.667 14.667-14.667v0zM9.404 17.335l-5.33-0c0.551 4.982 4.152 9.045 8.895 10.279-2.028-3.049-3.259-6.578-3.564-10.279zM27.927 17.334l-5.327 0c-0.299 3.684-1.532 7.22-3.567 10.279 4.742-1.235 8.343-5.297 8.894-10.279zM19.927 17.335l-7.85 0c0.335 3.615 1.696 7.059 3.923 9.931 2.236-2.882 3.598-6.337 3.927-9.931zM12.967 4.387l-0.048 0.012c-4.719 1.25-8.297 5.302-8.846 10.268l5.327-0c0.299-3.684 1.532-7.221 3.567-10.28zM16 4.733c-2.236 2.883-3.599 6.339-3.927 9.934l7.85-0c-0.335-3.615-1.696-7.060-3.923-9.933zM19.032 4.386l0.252 0.388c1.878 2.959 3.020 6.346 3.312 9.892l5.33 0.001c-0.551-4.983-4.152-9.046-8.895-10.281z"></path>
</symbol>
<symbol id="icon-Home" viewBox="0 0 32 32">
<path d="M6.667 30.667c-2.209 0-4-1.791-4-4v0-14.667c0-0.411 0.19-0.8 0.515-1.052v0l12-9.333c0.481-0.375 1.156-0.375 1.637 0v0l12 9.333c0.325 0.253 0.515 0.641 0.515 1.052v0 14.667c0 2.209-1.791 4-4 4v0zM16 4.355l-10.667 8.296v14.016c0 0.684 0.515 1.247 1.178 1.324v0l0.155 0.009h4v-12c0-0.684 0.515-1.247 1.178-1.324l0.155-0.009h8c0.684 0 1.247 0.515 1.324 1.178l0.009 0.155v12h4c0.684 0 1.247-0.515 1.324-1.178l0.009-0.155v-14.015l-10.667-8.297zM18.667 17.333h-5.333v10.667h5.333v-10.667z"></path>
</symbol>
<symbol id="icon-Inbox" viewBox="0 0 32 32">
<path d="M22.347 4c1.518 0.001 2.905 0.861 3.578 2.216v0l4.6 9.187c0.020 0.040 0.033 0.069 0.045 0.1 0.063 0.158 0.096 0.326 0.096 0.497v0 8c0 2.209-1.791 4-4 4v0h-21.333c-2.209 0-4-1.791-4-4v0-8c0-0.207 0.048-0.412 0.141-0.597l-0.045 0.1c0.012-0.030 0.025-0.060 0.040-0.089l0.006-0.011 4.598-9.183c0.675-1.359 2.062-2.219 3.58-2.22v0zM4 24c0 0.684 0.515 1.247 1.178 1.324v0l0.155 0.009h21.333c0.736 0 1.333-0.597 1.333-1.333v0-6.668l-5.953 0.001-2.271 3.406c-0.216 0.325-0.562 0.536-0.944 0.583l-0.166 0.010h-5.333c-0.39 0-0.758-0.171-1.009-0.462l-0.1-0.132-2.272-3.406-5.952-0.001zM22.347 6.667l-12.859 0.011c-0.439 0.056-0.827 0.327-1.028 0.733v0l-3.634 7.255 5.841 0.001c0.39 0 0.758 0.171 1.009 0.462l0.1 0.132 2.271 3.406h3.905l2.272-3.406c0.216-0.325 0.562-0.536 0.944-0.583l0.166-0.010 5.841-0.001-3.635-7.259c-0.175-0.352-0.494-0.604-0.864-0.699l-0.162-0.031-0.167-0.011z"></path>
</symbol>
</defs>
</svg>
